<?xml version="1.0" encoding="UTF-8"?>
<!DOCTYPE svg PUBLIC "-//W3C//DTD SVG 1.1//EN" "http://www.w3.org/Graphics/SVG/1.1/DTD/svg11.dtd">
<!-- Creator: CorelDRAW (Versão OEM) -->
<svg xmlns="http://www.w3.org/2000/svg" xml:space="preserve" width="39.7834mm" height="70.3737mm" version="1.1" style="shape-rendering:geometricPrecision; text-rendering:geometricPrecision; image-rendering:optimizeQuality; fill-rule:evenodd; clip-rule:evenodd"
viewBox="0 0 279.1 493.7"
 xmlns:xlink="http://www.w3.org/1999/xlink"
 xmlns:xodm="http://www.corel.com/coreldraw/odm/2003">
 <defs>
  <style type="text/css">
   <![CDATA[
    .fil1 {fill:none}
    .fil0 {fill:#373435}
   ]]>
  </style>
   <clipPath id="id0">
    <path d="M23.35 0l232.4 0c12.84,0 23.35,10.51 23.35,23.35l0 447c0,12.84 -10.51,23.35 -23.35,23.35l-232.4 0c-12.84,0 -23.35,-10.51 -23.35,-23.35l0 -447c0,-12.84 10.51,-23.35 23.35,-23.35z"/>
   </clipPath>
 </defs>
 <g id="Camada_x0020_1">
  <metadata id="CorelCorpID_0Corel-Layer"/>
  <path class="fil0" d="M23.35 0l232.4 0c12.84,0 23.35,10.51 23.35,23.35l0 447c0,12.84 -10.51,23.35 -23.35,23.35l-232.4 0c-12.84,0 -23.35,-10.51 -23.35,-23.35l0 -447c0,-12.84 10.51,-23.35 23.35,-23.35z"/>
  <g style="clip-path:url(#id0)">
   <g id="_1841083944384">
    <image x="-123.23" y="-20.95" width="952.47" height="535.61" xlink:href="01_Images\01_ImgID1.png"/>
   </g>
  </g>
  <path class="fil1" d="M23.35 0l232.4 0c12.84,0 23.35,10.51 23.35,23.35l0 447c0,12.84 -10.51,23.35 -23.35,23.35l-232.4 0c-12.84,0 -23.35,-10.51 -23.35,-23.35l0 -447c0,-12.84 10.51,-23.35 23.35,-23.35z"/>
 </g>
</svg>
