<?xml version="1.0" encoding="UTF-8"?>
<!DOCTYPE svg PUBLIC "-//W3C//DTD SVG 1.1//EN" "http://www.w3.org/Graphics/SVG/1.1/DTD/svg11.dtd">
<!-- Creator: CorelDRAW (Versão OEM) -->
<svg xmlns="http://www.w3.org/2000/svg" xml:space="preserve" width="5.5678mm" height="5.5904mm" version="1.1" style="shape-rendering:geometricPrecision; text-rendering:geometricPrecision; image-rendering:optimizeQuality; fill-rule:evenodd; clip-rule:evenodd"
viewBox="0 0 55.33 55.55"
 xmlns:xlink="http://www.w3.org/1999/xlink"
 xmlns:xodm="http://www.corel.com/coreldraw/odm/2003">
 <defs>
  <style type="text/css">
   <![CDATA[
    .fil0 {fill:gray;fill-rule:nonzero}
   ]]>
  </style>
 </defs>
 <g id="Camada_x0020_1">
  <metadata id="CorelCorpID_0Corel-Layer"/>
  <path class="fil0" d="M1.08 6.34c-1.45,-1.45 -1.44,-3.81 0.01,-5.25 1.45,-1.45 3.81,-1.44 5.25,0.01l21.31 21.41 21.31 -21.41c1.45,-1.45 3.8,-1.46 5.25,-0.01 1.45,1.45 1.46,3.8 0.01,5.25l-21.34 21.44 21.34 21.44c1.45,1.45 1.44,3.81 -0.01,5.25 -1.45,1.45 -3.81,1.44 -5.25,-0.01l-21.31 -21.41 -21.31 21.41c-1.45,1.45 -3.8,1.46 -5.25,0.01 -1.45,-1.45 -1.46,-3.8 -0.01,-5.25l21.34 -21.44 -21.34 -21.44z"/>
 </g>
</svg>
