<?xml version="1.0" encoding="UTF-8"?>
<!DOCTYPE svg PUBLIC "-//W3C//DTD SVG 1.1//EN" "http://www.w3.org/Graphics/SVG/1.1/DTD/svg11.dtd">
<!-- Creator: CorelDRAW (Versão OEM) -->
<svg xmlns="http://www.w3.org/2000/svg" xml:space="preserve" width="3mm" height="3mm" version="1.1" style="shape-rendering:geometricPrecision; text-rendering:geometricPrecision; image-rendering:optimizeQuality; fill-rule:evenodd; clip-rule:evenodd"
viewBox="0 0 17.11 17.11"
 xmlns:xlink="http://www.w3.org/1999/xlink"
 xmlns:xodm="http://www.corel.com/coreldraw/odm/2003">
 <defs>
  <style type="text/css">
   <![CDATA[
    .fil0 {fill:#282829}
   ]]>
  </style>
 </defs>
 <g id="Camada_x0020_1">
  <metadata id="CorelCorpID_0Corel-Layer"/>
  <ellipse class="fil0" cx="5.74" cy="3.17" rx="3.03" ry="3.17"/>
  <path class="fil0" d="M3.94 7.17c-2.56,0.55 -3.91,2.81 -3.94,7.27 3.85,3.57 7.59,3.57 11.21,0 0.1,-4.17 -1.19,-6.42 -3.84,-7.14 -0.47,0.31 -1.03,0.5 -1.62,0.5 -0.67,0 -1.29,-0.23 -1.8,-0.62z"/>
  <ellipse class="fil0" cx="13.35" cy="2.61" rx="2.08" ry="2.18"/>
  <path class="fil0" d="M12.11 5.36c-0.97,0.21 -1.68,0.77 -2.13,1.74 1.47,1.18 2.18,2.98 2.43,5 1.6,0.36 3.16,-0.22 4.7,-1.74 0.07,-2.87 -0.82,-4.42 -2.64,-4.91 -0.32,0.22 -0.71,0.34 -1.12,0.34 -0.46,0 -0.89,-0.16 -1.23,-0.42z"/>
 </g>
</svg>
