<?xml version="1.0" encoding="UTF-8"?>
<!DOCTYPE svg PUBLIC "-//W3C//DTD SVG 1.1//EN" "http://www.w3.org/Graphics/SVG/1.1/DTD/svg11.dtd">
<!-- Creator: CorelDRAW (Versão OEM) -->
<svg xmlns="http://www.w3.org/2000/svg" xml:space="preserve" width="3.0007mm" height="3.0014mm" version="1.1" style="shape-rendering:geometricPrecision; text-rendering:geometricPrecision; image-rendering:optimizeQuality; fill-rule:evenodd; clip-rule:evenodd"
viewBox="0 0 300.14 300.21"
 xmlns:xlink="http://www.w3.org/1999/xlink"
 xmlns:xodm="http://www.corel.com/coreldraw/odm/2003">
 <defs>
  <style type="text/css">
   <![CDATA[
    .fil0 {fill:gray}
   ]]>
  </style>
 </defs>
 <g id="Camada_x0020_1">
  <metadata id="CorelCorpID_0Corel-Layer"/>
  <ellipse class="fil0" cx="100.66" cy="55.59" rx="53.13" ry="55.59"/>
  <path class="fil0" d="M69.1 125.75c-44.9,9.64 -68.58,49.28 -69.1,127.5 67.52,62.6 133.11,62.6 196.6,0 1.75,-73.14 -20.86,-112.6 -67.35,-125.22 -8.24,5.44 -18.06,8.77 -28.41,8.77 -11.75,0 -22.63,-4.03 -31.57,-10.87l-0.18 -0.18z"/>
  <ellipse class="fil0" cx="234.12" cy="45.77" rx="36.48" ry="38.23"/>
  <path class="fil0" d="M212.38 94c-17.01,3.68 -29.47,13.5 -37.36,30.52 25.78,20.69 38.23,52.26 42.62,87.69 28.06,6.31 55.42,-3.86 82.43,-30.52 1.23,-50.33 -14.38,-77.52 -46.3,-86.11 -5.61,3.86 -12.45,5.96 -19.64,5.96 -8.07,0 -15.6,-2.81 -21.58,-7.36l-0.17 -0.18z"/>
 </g>
</svg>
