<?xml version="1.0" encoding="UTF-8"?>
<!DOCTYPE svg PUBLIC "-//W3C//DTD SVG 1.1//EN" "http://www.w3.org/Graphics/SVG/1.1/DTD/svg11.dtd">
<!-- Creator: CorelDRAW (Versão OEM) -->
<svg xmlns="http://www.w3.org/2000/svg" xml:space="preserve" width="7mm" height="7mm" version="1.1" style="shape-rendering:geometricPrecision; text-rendering:geometricPrecision; image-rendering:optimizeQuality; fill-rule:evenodd; clip-rule:evenodd"
viewBox="0 0 29.85 29.85"
 xmlns:xlink="http://www.w3.org/1999/xlink"
 xmlns:xodm="http://www.corel.com/coreldraw/odm/2003">
 <defs>
  <style type="text/css">
   <![CDATA[
    .fil0 {fill:#0866FF}
   ]]>
  </style>
 </defs>
 <g id="Camada_x0020_1">
  <metadata id="CorelCorpID_0Corel-Layer"/>
  <path class="fil0" d="M-0 24.83c0,2.76 2.24,5.01 4.97,5.01l19.9 0c2.74,0 4.97,-2.26 4.97,-5.01l0 -9.83c0,-3.34 0.06,-4.51 -2.36,-6.94l-9.05 -6.82c-2.19,-1.65 -4.84,-1.65 -7.03,0l-8.9 6.68c-2.42,2.43 -2.5,3.79 -2.5,7.13l0 9.79zm11.2 3.65l7.52 0c0.28,0 0.51,-0.23 0.51,-0.51l0 -10.19c0,-0.54 -0.44,-0.97 -0.97,-0.97l-6.77 0c-0.53,0 -0.97,0.44 -0.97,0.97l0 10.02c0,0.37 0.3,0.68 0.68,0.68z"/>
 </g>
</svg>
