<?xml version="1.0" encoding="UTF-8"?>
<!DOCTYPE svg PUBLIC "-//W3C//DTD SVG 1.1//EN" "http://www.w3.org/Graphics/SVG/1.1/DTD/svg11.dtd">
<!-- Creator: CorelDRAW (Versão OEM) -->
<svg xmlns="http://www.w3.org/2000/svg" xml:space="preserve" width="7mm" height="7mm" version="1.1" style="shape-rendering:geometricPrecision; text-rendering:geometricPrecision; image-rendering:optimizeQuality; fill-rule:evenodd; clip-rule:evenodd"
viewBox="0 0 45.67 45.67"
 xmlns:xlink="http://www.w3.org/1999/xlink"
 xmlns:xodm="http://www.corel.com/coreldraw/odm/2003">
 <defs>
  <style type="text/css">
   <![CDATA[
    .fil0 {fill:#65686C}
   ]]>
  </style>
 </defs>
 <g id="Camada_x0020_1">
  <metadata id="CorelCorpID_0Corel-Layer"/>
  <path class="fil0" d="M2.92 22.71l0 17.34c0,1.54 0.62,2.94 1.61,3.97 0.99,1.02 2.37,1.65 3.87,1.65l6.59 0 15.66 0 6.5 0c1.5,0 2.87,-0.63 3.87,-1.65 0.99,-1.02 1.61,-2.42 1.61,-3.96l0 -17.23c1.34,-1.14 2.24,-3.03 2.69,-5.25 0.39,-1.89 0.46,-4.04 0.21,-6.15 -0.25,-2.12 -0.82,-4.23 -1.73,-6.05 -1.56,-3.13 -4.09,-5.37 -7.63,-5.37l-26.66 0c-3.54,0 -6.06,2.24 -7.63,5.37 -0.91,1.82 -1.48,3.93 -1.73,6.05 -0.25,2.11 -0.18,4.26 0.21,6.15 0.44,2.15 1.29,3.99 2.56,5.14zm37.39 1.23l0 16.12c0,0.89 -0.35,1.7 -0.93,2.29 -0.57,0.58 -1.36,0.95 -2.23,0.95l-6.5 0 0 -9.26c0,-0.95 -0.38,-1.81 -0.99,-2.43 -0.61,-0.62 -1.45,-1.01 -2.37,-1.01l-8.93 0c-0.92,0 -1.77,0.39 -2.37,1.01 -0.61,0.62 -0.99,1.48 -0.99,2.43l0 9.26 -6.59 0c-0.87,0 -1.66,-0.36 -2.24,-0.95 -0.57,-0.58 -0.93,-1.39 -0.93,-2.29l0 -16.14c4.89,1.15 6.57,-0.25 8.1,-1.52 0.65,-0.54 1.27,-1.06 2.22,-1.1 1.03,-0.05 2.04,0.54 3.06,1.13 1.27,0.74 2.55,1.49 4.21,1.49 1.67,0 2.95,-0.75 4.21,-1.49 1.02,-0.59 2.02,-1.18 3.06,-1.13 0.95,0.05 1.57,0.56 2.22,1.1 1.52,1.26 3.18,2.65 7.97,1.55zm-35.73 -2.89c-0.94,-0.76 -1.6,-2.21 -1.96,-3.96 -0.33,-1.63 -0.39,-3.52 -0.17,-5.39 0.22,-1.87 0.71,-3.7 1.49,-5.25 1.18,-2.37 3.04,-4.07 5.57,-4.07l13.33 0 13.33 0c2.53,0 4.38,1.7 5.57,4.07 0.77,1.55 1.27,3.38 1.49,5.25 0.22,1.87 0.16,3.75 -0.17,5.39 -0.38,1.84 -1.08,3.34 -2.09,4.06 -0.04,0.03 -0.07,0.05 -0.11,0.07 -0.12,0.08 -0.24,0.14 -0.37,0.2 -0.12,0.05 -0.25,0.1 -0.38,0.13 -3.93,0.96 -5.17,-0.07 -6.3,-1.01 -0.96,-0.8 -1.86,-1.55 -3.58,-1.63 -1.7,-0.08 -3,0.67 -4.31,1.44 -1,0.58 -2,1.17 -3.07,1.17 -1.07,0 -2.07,-0.59 -3.07,-1.17 -1.31,-0.76 -2.61,-1.52 -4.31,-1.44 -1.72,0.08 -2.62,0.83 -3.58,1.63 -1.13,0.94 -2.37,1.97 -6.3,1.01 -0.01,-0 -0.02,-0.01 -0.03,-0.01 -0.14,-0.04 -0.27,-0.08 -0.39,-0.14 -0.14,-0.07 -0.28,-0.15 -0.42,-0.24 -0.05,-0.04 -0.11,-0.08 -0.16,-0.12zm12.74 22.24l0 -9.26c0,-0.29 0.12,-0.56 0.31,-0.75 0.19,-0.19 0.45,-0.31 0.73,-0.31l8.93 0c0.28,0 0.54,0.12 0.73,0.31 0.19,0.19 0.31,0.46 0.31,0.75l0 9.26 -11.01 0z"/>
 </g>
</svg>
