<?xml version="1.0" encoding="UTF-8"?>
<!DOCTYPE svg PUBLIC "-//W3C//DTD SVG 1.1//EN" "http://www.w3.org/Graphics/SVG/1.1/DTD/svg11.dtd">
<!-- Creator: CorelDRAW (Versão OEM) -->
<svg xmlns="http://www.w3.org/2000/svg" xml:space="preserve" width="7mm" height="7mm" version="1.1" style="shape-rendering:geometricPrecision; text-rendering:geometricPrecision; image-rendering:optimizeQuality; fill-rule:evenodd; clip-rule:evenodd"
viewBox="0 0 28.21 28.21"
 xmlns:xlink="http://www.w3.org/1999/xlink"
 xmlns:xodm="http://www.corel.com/coreldraw/odm/2003">
 <defs>
  <style type="text/css">
   <![CDATA[
    .fil0 {fill:#65686C}
   ]]>
  </style>
 </defs>
 <g id="Camada_x0020_1">
  <metadata id="CorelCorpID_0Corel-Layer"/>
  <path class="fil0" d="M3.07 7.78l0 0zm1.62 -2.23l0 0zm18.83 -0l0 0zm-16.5 7.99c0,-1.36 -0.55,-2.6 -1.45,-3.5 -0.77,-0.77 -1.8,-1.29 -2.94,-1.42l0.01 -0.03 0.02 -0.03 0.03 -0.06 0.02 -0.05 0.01 -0.02 0.03 -0.06 0.03 -0.06 0.03 -0.06 0.03 -0.06 0.01 -0.02 0.05 -0.1 0 -0.01 0.02 -0.03 0.01 -0.03 0.03 -0.06 0.03 -0.05 0.01 -0.01 0.07 -0.12 0.03 -0.05 0.03 -0.06 0.01 -0.02 0.02 -0.04 0.06 -0.09 0.01 -0.02 0.04 -0.06 0.03 -0.05 0 -0.01 0.04 -0.06 0.04 -0.06 0.01 -0.01 0.03 -0.05 0.04 -0.06 0.02 -0.02 0.02 -0.03 0.06 -0.09 0.01 -0.02 0.04 -0.06 0.04 -0.06 0.04 -0.06 0.04 -0.05 0.01 -0.01 0.03 -0.04 0.04 -0.05 0.02 -0.03 0.02 -0.03 0.04 -0.05 0.03 -0.04 0.01 -0.01 0.01 -0.01 0.07 -0.1 0.08 -0.1 0.01 -0.02 0.03 -0.04 0.04 -0.05 0.02 -0.03 0.02 -0.02 0.04 -0.05 0.04 -0.04 0.01 -0.01 0.09 -0.1 0 -0.01 0.04 -0.05 0.04 -0.05 0.02 -0.02 0.03 -0.03 0.04 -0.05 0.03 -0.03 0.02 -0.02 0.04 -0.05 0.05 -0.05 0.09 -0.1 0.01 -0.01 0.04 -0.04 0.05 -0.05 0.02 -0.02 0.02 -0.03 0.05 -0.05 0.03 -0.04 0.01 -0.01 0.05 -0.05 0.05 -0.05c2.3,-2.3 5.48,-3.73 8.99,-3.73 3.51,0 6.69,1.42 8.99,3.73l0.05 0.05 0.05 0.05 0.01 0.01 0.03 0.04 0.05 0.05 0.02 0.03 0.02 0.02 0.05 0.05 0.04 0.04 0.01 0.01 0.09 0.1 0.04 0.05 0.04 0.05 0.04 0.05 0.04 0.05 0.03 0.03 0.02 0.02 0.08 0.1 0.01 0.01 0.09 0.1 0.01 0.01 0.04 0.04 0.06 0.07 0.02 0.03 0.04 0.05 0.03 0.04 0.01 0.02 0.04 0.05 0.04 0.05 0.04 0.05 0.04 0.05 0.01 0.01 0.03 0.04 0.04 0.05 0.02 0.03 0.02 0.03 0.04 0.05 0.03 0.04 0.01 0.01 0.04 0.06 0.04 0.06 0.04 0.05 0.04 0.06 0.01 0.02 0.03 0.04 0.04 0.06 0.02 0.03 0.02 0.02 0.04 0.06 0.03 0.05 0.01 0.01 0.04 0.06 0.04 0.06 0 0.01 0.03 0.05 0.04 0.06 0.01 0.02 0.02 0.04 0.03 0.06 0.02 0.04 0.01 0.02 0.03 0.06 0.03 0.05 0 0.01 0.03 0.06 0.03 0.06 0.01 0.01 0.03 0.05 0.03 0.06 0.01 0.03 0.02 0.03 0.03 0.06 0.02 0.04 0.01 0.02 0.03 0.06 0.03 0.06 0.03 0.06 0.03 0.06 0.01 0.01 0.02 0.05 0.03 0.06 0.02 0.03 0.01 0.03c-1.14,0.13 -2.16,0.65 -2.93,1.42 -0.9,0.9 -1.45,2.13 -1.45,3.5 0,1.37 0.55,2.6 1.45,3.5 0.87,0.87 2.07,1.42 3.39,1.45l-0.03 0.08 -0.03 0.08 -0.03 0.08 -0.03 0.08 -0.03 0.08 -0.03 0.08 -0.03 0.08 -0.03 0.08 -0.03 0.08 -0.04 0.08 -0.04 0.08 -0.04 0.08 -0.04 0.08 -0.04 0.08 -0.04 0.08 -0.04 0.08 -0.04 0.08 -0.04 0.08 -0.04 0.08 -0.04 0.08 -0.04 0.08 -0.04 0.08 -0.04 0.08 -0.04 0.07 -0.04 0.08 -0.04 0.07 -0.04 0.07 -0.04 0.07 -0.04 0.07 -0.05 0.07 -0.05 0.07 -0.05 0.07 -0.05 0.07 -0.05 0.07 -0.05 0.07 -0.05 0.07 -0.05 0.07 -0.05 0.07 -0.05 0.07 -0.05 0.07 -0.05 0.07 -0.05 0.07 -0.05 0.07 -0.05 0.07 -0.05 0.07 -0.05 0.07 -0.05 0.07 -0.05 0.07 -0.05 0.07 -0.05 0.07 -0.06 0.07 -0.05 0.07 -0.06 0.07 -0.06 0.06 -0.06 0.06 -0.06 0.06 -0.06 0.06 -0.06 0.06 -0.06 0.06 -0.06 0.06 -0.06 0.06 -0.06 0.06 -0.06 0.06 -0.06 0.06 -0.02 0.02 -0.02 0.02 -0.02 0.02 -0.02 0.02 -0.02 0.02 -0.01 0.01 -0.01 0.01 -0.02 0.02 -0.04 0.04 -0.02 0.02 -0.01 0.01 -0.01 0.01 -0.02 0.02 -0.08 0.08 -0.02 0.02 -0.02 0.02 -0.02 0.02 -0.02 0.02 -0.02 0.02 -0.01 0 -0.02 0.01 -0.04 0.04 -0.02 0.02 -0.02 0.02 -0.01 0.01 -0.01 0.01 -0.02 0.02 -0.04 0.04 -0.02 0.02 -0.02 0.02 -0.09 0.07 -0.03 0.02 -0.02 0.02 -0.09 0.07 -0.01 0.01 -0.01 0.01 -0.02 0.02 -0.04 0.04 -0.02 0.02 -0.02 0.01 -0.01 0 -0.02 0.02 -0.02 0.02 -0.05 0.04 -0.02 0.02 -0.02 0.02 -0.02 0.02 -0.02 0.02 -0.02 0.02 -0.02 0.02 -0.01 0.01 -0.01 0.01 -0.05 0.04 -0.02 0.02 -0.02 0.02 -0.02 0.01 -0.01 0.01c0.07,-0.38 0.11,-0.77 0.11,-1.17 0,-1.93 -0.87,-3.68 -2.29,-4.94 -1.39,-1.24 -3.31,-2.01 -5.42,-2.01 -2.11,0 -4.03,0.77 -5.42,2.01 -1.41,1.26 -2.29,3.01 -2.29,4.94 0,0.4 0.04,0.79 0.11,1.17l-0.01 -0.01 -0.02 -0.01 -0.02 -0.02 -0.02 -0.02 -0.05 -0.04 -0.01 -0.01 -0.01 -0.01 -0.02 -0.02 -0.02 -0.02 -0.02 -0.02 -0.02 -0.02 -0.02 -0.02 -0.02 -0.02 -0.05 -0.04 -0.02 -0.02 -0.02 -0.02 -0.01 -0 -0.02 -0.01 -0.02 -0.02 -0.04 -0.04 -0.02 -0.02 -0.01 -0.01 -0.01 -0.01 -0.09 -0.07 -0.02 -0.02 -0.02 -0.02 -0.09 -0.08 -0.02 -0.02 -0.02 -0.02 -0.04 -0.04 -0.02 -0.02 -0.01 -0.01 -0.01 -0.01 -0.02 -0.02 -0.02 -0.02 -0.04 -0.04 -0.02 -0.01 -0.01 -0 -0.02 -0.02 -0.02 -0.02 -0.02 -0.02 -0.02 -0.02 -0.02 -0.02 -0.08 -0.08 -0.02 -0.02 -0.01 -0.01 -0.01 -0.01 -0.02 -0.02 -0.04 -0.04 -0.02 -0.02 -0.01 -0.01 -0.01 -0.01 -0.02 -0.02 -0.02 -0.02 -0.02 -0.02 -0.02 -0.02 -0.02 -0.02 -0.06 -0.06 -0.05 -0.05 -0.01 -0.01 -0.09 -0.1 -0.03 -0.03 -0.06 -0.06 -0.02 -0.02 -0.1 -0.1 -0.01 -0.01 -0.05 -0.06 -0.05 -0.06 -0.01 -0.01 -0.06 -0.06 -0.04 -0.04 -0.07 -0.09 -0.02 -0.03 -0.03 -0.04 -0.06 -0.07 -0.01 -0.02 -0.04 -0.05 -0.05 -0.07 -0.05 -0.07 -0.04 -0.05 -0.01 -0.01 -0.08 -0.11 -0.02 -0.03 -0.05 -0.07 -0.05 -0.07 -0.05 -0.07 -0.01 -0.01 -0.04 -0.06 -0.05 -0.06 -0 -0.01 -0.05 -0.07 -0.01 -0.01 -0.04 -0.06 -0.05 -0.07 -0.02 -0.03 -0.07 -0.11 -0.01 -0.02 -0.04 -0.05 -0.05 -0.07 -0.05 -0.07 -0.04 -0.06 -0.01 -0.01 -0.05 -0.07 -0.03 -0.04 -0.02 -0.03 -0.04 -0.07 -0.02 -0.03 -0.03 -0.05 -0.04 -0.07 -0.01 -0.01 -0.04 -0.06 -0.04 -0.07 -0 -0.01 -0.04 -0.08 -0.03 -0.05 -0.01 -0.02 -0.04 -0.08 -0.02 -0.04 -0.02 -0.04 -0.04 -0.08 -0.01 -0.02 -0.03 -0.06 -0.04 -0.08 -0.04 -0.07 -0.03 -0.06 -0.01 -0.01 -0.04 -0.08 -0.02 -0.05 -0.01 -0.03 -0.04 -0.08 -0.01 -0.03 -0.02 -0.05 -0.04 -0.08 -0.01 -0.01 -0.05 -0.12 -0.01 -0.02 -0 -0.01 -0.03 -0.08 -0.02 -0.06 -0.06 -0.14 -0.02 -0.04 -0.03 -0.08 -0.01 -0.02 -0.05 -0.14c1.33,-0.02 2.53,-0.57 3.4,-1.45 0.9,-0.9 1.45,-2.13 1.45,-3.5zm-3.12 -9.16l0 0zm-2.92 4.56l0 0zm5.66 17.14l0 0zm14.92 0l0 0zm2.75 -21.71l0 0zm0.18 0.19l-0.06 -0.06 -0.01 -0.01 -0.12 -0.12 -0.06 -0.06 -0.06 -0.06 -0.06 -0.06 -0.06 -0.06c-2.55,-2.55 -6.08,-4.13 -9.97,-4.13 -3.89,0 -7.42,1.58 -9.97,4.13l-0.06 0.06 -0.06 0.06 -0.12 0.12 -0.06 0.06 -0.05 0.06 -0 0.01 -0.02 0.02 -0.09 0.1 -0.01 0.01 -0.11 0.12 -0.01 0.01 -0.06 0.06 -0.05 0.05 -0.01 0.01 -0.06 0.07 -0.04 0.05 -0.01 0.01 -0.1 0.12 -0.01 0.01 -0.05 0.07 -0.04 0.05 -0.01 0.02 -0.05 0.07 -0.04 0.05 -0.02 0.02 -0.05 0.07 -0.04 0.05 -0.02 0.02 -0.05 0.07 -0.03 0.05 -0.02 0.03 -0.08 0.11 -0.02 0.03 -0.05 0.07 -0.03 0.04 -0.02 0.03 -0.05 0.07 -0.03 0.04 -0.02 0.03 -0.05 0.07 -0.03 0.04 -0.02 0.03 -0.05 0.07 -0.02 0.04 -0.02 0.03 -0.05 0.07 -0.02 0.04 -0.02 0.04 -0.05 0.07 -0.02 0.03 -0.07 0.11 -0.02 0.03 -0.02 0.04 -0.04 0.07 -0.02 0.03 -0.03 0.04 -0.04 0.07 -0.02 0.03 -0.01 0.01 -0.06 0.11 -0.01 0.03 -0.03 0.05 -0.04 0.08 -0.01 0.02 -0.03 0.05 -0.05 0.1 -0.03 0.05 -0.04 0.08 -0.01 0.02 -0.03 0.06 -0.04 0.08 -0.01 0.02 -0.03 0.06 -0.04 0.08 -0.01 0.02 -0.03 0.06 -0.04 0.08 -0.01 0.01 -0.01 0.02 -0.06 0.13 -0.01 0.01 -0.07 0.15 -0 0.01c-0.03,0.08 -0.07,0.15 -0.1,0.23 -0.01,0.02 -0.02,0.05 -0.03,0.07l-0 0.01 -0.01 0.01 -0.01 0.03 -0.01 0.02 -0.01 0.02 -0.01 0.02 -0.01 0.02 -0.01 0.03 -0.01 0.03 -0.01 0.02 -0.01 0.02 -0.01 0.03 -0.01 0.03 -0.01 0.03 -0 0 -0.01 0.02 -0.01 0.03 -0.02 0.05 -0.01 0.02 -0.01 0.03 -0.01 0.01 -0 0.01 -0.01 0.02 -0.04 0.1 -0.01 0.03 -0.01 0.03 -0.01 0.03 -0.01 0.03 -0.01 0.03 -0.01 0.03 -0.01 0.03 -0 0.01 -0.01 0.02 -0.01 0.03 -0.02 0.05 -0.01 0.03 -0.01 0.03 -0.01 0.02 -0 0.01 -0.01 0.03 -0.04 0.13 -0.04 0.13 -0.01 0.03 -0 0.01 -0 0.02 -0.04 0.13 -0.01 0.02 -0 0.01 -0.02 0.08 -0.02 0.06 -0.01 0.03 -0.01 0.03 -0.01 0.06 -0.01 0.06 -0.01 0.02 -0.01 0.03 -0.01 0.06 -0.01 0.06 -0.01 0.02 -0.01 0.03 -0.03 0.11 -0.01 0.02 -0.03 0.15 -0 0.02 -0.01 0.04 -0.01 0.06 -0.01 0.06 -0 0.02 -0.01 0.04 -0.01 0.06 -0.01 0.06 -0 0.02 -0.01 0.04 -0.01 0.06 -0.01 0.06 -0 0.02 -0.01 0.04 -0.02 0.13 -0.01 0.04 -0.02 0.12 -0 0.02 -0.01 0.04 -0.01 0.06 -0.01 0.06 -0 0.01 -0.01 0.04 -0.01 0.06 -0.01 0.06 -0 0.01 -0.01 0.05 -0.01 0.06 -0.01 0.07 -0.01 0.05 -0.01 0.12 -0 0.01 -0 0.05 -0.01 0.1 -0 0.02 -0 0.01 -0 0.05 -0.01 0.12 -0 0.01 -0 0.05 -0.01 0.12 -0 0.01 -0 0.05 -0 0.06 -0 0.06 0 0.01 -0 0.06 -0.01 0.13 -0 0.06 -0 0.06 -0 0.06 -0 0.06 -0 0.06 -0 0.06 -0 0.06 -0 0.12 0 0.04 0 0.03 0 0.01 0 0.04 0 0.02 0 0.02 0 0.04 0 0.01 0 0.03 0 0.03 0 0.01 0 0.04 0 0.02 0 0.02 0 0.04 0 0.01 0 0.03 0 0.04 0 0.04 0 0.03 0 0.01 0 0.04 0 0.02 0 0.02 0 0.04 0 0.01 0 0.03 0 0.03 0 0 0 0.04 0 0.02 0 0.02 0 0.04 0 0.01 0 0.03 0 0.04 0 0.04 0 0.03 0 0.01 0 0.04 0 0.02 0 0.02 0 0.04 0 0.01 0 0.03 0 0.04 0 0.04 0 0.02 0 0.02 0 0.04 0 0.01 0 0.03 0 0.04 0 0.04 0 0.03 0 0.01 0 0.04 0 0.02 0 0.02 0 0.04 0 0.01 0 0.03 0 0.04 0 0.04 0 0.02 0 0.01 0 0.04 0 0.01 0 0.03 0.01 0.04 0 0.04 0 0.03 0 0.01 0.01 0.04 0 0.02 0 0.02 0.01 0.04 0 0.01 0 0.03 0.01 0.04 0.01 0.04 0 0.02 0 0.01 0.01 0.04 0 0.01 0 0.02 0.01 0.04 0.01 0.04 0 0.03 0 0.01 0.01 0.04 0 0.02 0 0.02 0 0.03 0 0.02 0 0.01 0 0.03 0.01 0.03 0 0.02 0.01 0.04 0 0.01 0.01 0.03 0.01 0.03 0.01 0.03 0.01 0.03 0 0.01 0 0.02 0.01 0.03 0.02 0.08 0 0.02 0.01 0.03 0 0.01 0.01 0.04 0.01 0.03 0.01 0.03 0.01 0.03 0 0.01 0 0.02 0.01 0.03 0 0.02 0 0.01 0.02 0.11 0 0.01 0 0.01 0.01 0.03 0.01 0.03 0.01 0.03 0.01 0.03 0 0.01 0 0.02 0.01 0.03 0 0.02 0 0.01 0.01 0.05 0.01 0.03 0.03 0.1 0 0 0.03 0.1 0 0.02 0 0.01 0.01 0.03 0.01 0.03 0.01 0.03 0.01 0.03 0 0.01 0 0.01 0.05 0.16 0 0.02 0 0.01 0.02 0.05 0.03 0.1 0.03 0.1 0.03 0.1 0.03 0.1 0.04 0.1 0.04 0.1 0.04 0.1 0.04 0.1 0.04 0.1 0.04 0.1 0.04 0.1 0.04 0.1 0.08 0.2 0.04 0.1 0.09 0.2 0.05 0.1 0.05 0.1 0.09 0.19 0.05 0.1 0.05 0.1 0.05 0.1 0.05 0.09 0.05 0.09 0.05 0.09 0.05 0.09 0.05 0.09 0.05 0.09 0.05 0.09 0.06 0.09 0.06 0.09 0.06 0.09 0.06 0.09 0.06 0.09 0.06 0.09 0.06 0.09 0.06 0.09 0.06 0.09 0.06 0.09 0.06 0.09 0.06 0.09 0.06 0.09 0.06 0.09 0.06 0.08 0.06 0.08 0.07 0.08 0.07 0.08 0.07 0.08 0.07 0.08 0.07 0.08 0.07 0.08 0.07 0.08 0.07 0.08 0.07 0.08 0.07 0.08 0.07 0.08 0.07 0.08 0.07 0.08 0.07 0.08 0.07 0.08 0.07 0.08 0.07 0.08 0.04 0.04 0.04 0.04 0.03 0.03 0.01 0.01 0.05 0.04 0.05 0.04 0.02 0.02 0.03 0.03 0.05 0.04 0.05 0.05 0.04 0.04 0.08 0.07 0.01 0.01 0.05 0.04 0.05 0.04 0.02 0.02 0.03 0.02 0.05 0.04 0.05 0.04 0.01 0.01 0.04 0.04 0.09 0.07 0.01 0.01 0.05 0.04 0.05 0.04 0.02 0.02 0.02 0.02 0.1 0.08 0.01 0.01 0.09 0.07 0.04 0.03 0.01 0 0.05 0.04 0.08 0.06 0.02 0.02 0.1 0.08 0.01 0.01 0.04 0.03 0.1 0.07 0.05 0.04 0.05 0.04 0.03 0.02 0.02 0.01 0.05 0.04 0.05 0.04 0.02 0.01 0.04 0.02 0.05 0.04 0.05 0.04 0.05 0.03 0.05 0.04 0.04 0.02 0.02 0.01 0.11 0.07 0.02 0.01 0.03 0.02 0.11 0.07 0.05 0.03 0.05 0.03 0.04 0.03 0.01 0.01 0.05 0.03 0.05 0.03 0.03 0.01 0.03 0.02 0.05 0.03 0.05 0.03 0.01 0 0.05 0.03 0.06 0.03 0.05 0.03 0.01 0 0.06 0.03 0.06 0.03 0.05 0.03 0.05 0.03 0.05 0.03 0.05 0.03 0.05 0.03 0.04 0.02 0.01 0 0.05 0.02 0.04 0.02 0.01 0 0.05 0.02 0.04 0.02 0.01 0 0.05 0.02 0.04 0.02 0.01 0.01 0.05 0.02 0.04 0.02 0.01 0.01 0.05 0.02 0.04 0.02 0.01 0.01 0.05 0.02 0.03 0.02 0.02 0.01 0.05 0.02 0.03 0.01 0.02 0.01 0.05 0.02 0.03 0.01 0.02 0.01 0.05 0.02 0.03 0.01 0.02 0.01 0.05 0.02 0.03 0.01 0.02 0.01 0.05 0.02 0.02 0.01 0.03 0.01 0.05 0.02 0.02 0.01 0.03 0.01 0.05 0.02 0.02 0.01 0.03 0.01 0.05 0.02 0.02 0.01 0.03 0.01 0.05 0.02 0.02 0.01 0.03 0.01 0.05 0.02 0.02 0.01 0.04 0.01 0.05 0.02 0.01 0.01 0.04 0.01 0.05 0.02 0.01 0 0.04 0.01 0.05 0.02 0.01 0 0.04 0.01 0.05 0.02 0.01 0 0.04 0.01 0.05 0.02 0.01 0 0.05 0.01 0.05 0.02 0.01 0 0.01 0 0.1 0.03 0.05 0.02 0.05 0.02 0.05 0.02 0.05 0.02 0.05 0.02 0.05 0.02 0.05 0.01 0.05 0.01 0.01 0 0.09 0.02 0.01 0 0.05 0.01 0.05 0.01 0.01 0 0.05 0.01 0.05 0.01 0.05 0.01 0.05 0.01 0.05 0.01 0.05 0.01 0.05 0.01 0.05 0.01 0.05 0.01 0.05 0.01 0.05 0.01 0.05 0.01 0.05 0.01 0.05 0.01 0.05 0.01 0.05 0.01 0.05 0.01 0.05 0.01 0.05 0.01 0.05 0.01 0.05 0.01 0.05 0.01 0.05 0.01 0.05 0.01 0.05 0.01 0.05 0.01 0.05 0.01 0.05 0.01 0.05 0.01 0.05 0.01 0.05 0.01 0.05 0.01 0.05 0.01 0.05 0.01 0.05 0.01 0.05 0.01 0.05 0.01 0.05 0.01 0.05 0.01 0.05 0.01 0.06 0.01 0.05 0.01 0.06 0 0.06 0 0.06 0 0.06 0 0.06 0 0.06 0 0.06 0 0.06 0 0.06 0 0.06 0 0.06 0 0.06 0 0.06 0 0.06 0 0.06 0 0.06 0 0.06 0 0.06 0 0.06 0 0.06 0 0.06 0 0.06 0 0.06 0c1.2,0 2.37,-0.15 3.48,-0.43l0.05 -0.01 0.01 -0 0.05 -0.01 0.05 -0.01 0.01 -0 0.05 -0.01 0.06 -0.02 0.05 -0.01 0.06 -0.02 0.05 -0.01 0.11 -0.03 0.05 -0.02 0.05 -0.02 0.05 -0.02 0.05 -0.02 0.05 -0.02 0.05 -0.02 0.05 -0.02 0.05 -0.02 0.05 -0.02 0.05 -0.02 0.04 -0.01 0.01 -0 0.05 -0.02 0.04 -0.01 0.01 -0 0.05 -0.02 0.04 -0.01 0.01 -0.01 0.05 -0.02 0.04 -0.01 0.02 -0.01 0.05 -0.02 0.03 -0.01 0.02 -0.01 0.05 -0.02 0.03 -0.01 0.02 -0.01 0.05 -0.02 0.05 -0.02 0.05 -0.02 0.03 -0.01 0.02 -0.01 0.05 -0.02 0.03 -0.01 0.02 -0.01 0.05 -0.02 0.05 -0.02 0.05 -0.02 0.02 -0.01 0.03 -0.01 0.05 -0.02 0.05 -0.02 0.05 -0.02 0.02 -0.01 0.03 -0.01 0.05 -0.02 0.02 -0.01 0.03 -0.02 0.05 -0.02 0.01 -0.01 0.04 -0.02 0.05 -0.02 0.01 -0.01 0.04 -0.02 0.05 -0.02 0.05 -0.02 0.05 -0.02 0.05 -0.02 0.05 -0.02 0.01 -0 0.04 -0.02 0.05 -0.02 0.01 -0 0.04 -0.02 0.05 -0.03 0.05 -0.03 0.05 -0.03 0.05 -0.03 0.05 -0.03 0.06 -0.03 0.06 -0.03 0.01 -0.01 0.05 -0.03 0.06 -0.03 0.05 -0.03 0.01 -0 0.05 -0.03 0.05 -0.03 0.03 -0.02 0.02 -0.01 0.05 -0.03 0.05 -0.03 0.01 -0.01 0.04 -0.03 0.05 -0.03 0.05 -0.03 0.05 -0.03 0.05 -0.03 0.03 -0.02 0.02 -0.01 0.05 -0.03 0.05 -0.03 0.02 -0.01 0.04 -0.02 0.05 -0.04 0.05 -0.04 0.05 -0.04 0.05 -0.04 0.04 -0.02 0.02 -0.01 0.05 -0.04 0.05 -0.04 0.02 -0.01 0.03 -0.02 0.05 -0.04 0.05 -0.04 0.05 -0.04 0.05 -0.04 0.04 -0.03 0.01 -0.01 0.05 -0.04 0.05 -0.04 0.02 -0.02 0.03 -0.02 0.05 -0.04 0.05 -0.04 0.01 -0 0.04 -0.03 0.05 -0.04 0.04 -0.03 0.01 -0.01 0.05 -0.04 0.05 -0.04 0.02 -0.02 0.02 -0.02 0.05 -0.04 0.05 -0.04 0.01 -0.01 0.09 -0.07 0.04 -0.04 0.01 -0.01 0.05 -0.04 0.05 -0.04 0.03 -0.02 0.02 -0.02 0.05 -0.04 0.05 -0.04 0.01 -0.01 0.04 -0.03 0.05 -0.04 0.05 -0.04 0.05 -0.04 0.05 -0.04 0.03 -0.03 0.02 -0.02 0.05 -0.04 0.05 -0.04 0.01 -0.01 0.03 -0.03 0.04 -0.04 0.04 -0.04 0.07 -0.07 0.07 -0.08 0.07 -0.08 0.07 -0.08 0.07 -0.08 0.07 -0.08 0.07 -0.08 0.07 -0.08 0.07 -0.08 0.07 -0.08 0.07 -0.08 0.07 -0.08 0.07 -0.08 0.07 -0.08 0.07 -0.08 0.07 -0.08 0.07 -0.08 0.06 -0.08 0.06 -0.09 0.06 -0.09 0.06 -0.09 0.06 -0.09 0.06 -0.09 0.06 -0.09 0.06 -0.09 0.06 -0.09 0.06 -0.09 0.06 -0.09 0.06 -0.09 0.06 -0.09 0.06 -0.09 0.06 -0.09 0.05 -0.09 0.05 -0.09 0.05 -0.09 0.05 -0.09 0.05 -0.09 0.05 -0.09 0.05 -0.09 0.05 -0.09 0.05 -0.1 0.05 -0.1 0.05 -0.1 0.05 -0.1 0.05 -0.1 0.05 -0.1 0.05 -0.1 0.04 -0.1 0.04 -0.1 0.04 -0.1 0.04 -0.1 0.04 -0.1 0.04 -0.1 0.04 -0.1 0.04 -0.1 0.04 -0.1 0.04 -0.1 0.04 -0.1 0.04 -0.1 0.04 -0.1 0.04 -0.1 0.03 -0.1 0.03 -0.1 0.03 -0.1 0.01 -0.03 0.01 -0.03 0.01 -0.03 0.01 -0.03 0.01 -0.03 0 -0.01 0 -0.01 0.01 -0.03 0.01 -0.03 0.01 -0.03 0.01 -0.03 0.01 -0.03 0.01 -0.03 0.01 -0.03 0.01 -0.03 0.01 -0.03 0.01 -0.03 0.01 -0.03 0.01 -0.03 0 -0.01 0 -0.02 0.01 -0.03 0.01 -0.03 0.01 -0.03 0.01 -0.03 0.01 -0.03 0.01 -0.02 0 -0.01 0.01 -0.03 0.01 -0.03 0.01 -0.03 0.01 -0.03 0.01 -0.03 0.01 -0.03 0 -0.01 0 -0.02 0.01 -0.03 0.01 -0.03 0.01 -0.03 0.01 -0.03 0.01 -0.03 0 -0.02 0 -0.01 0.01 -0.03 0.02 -0.08 0.01 -0.03 0.01 -0.03 0 -0.02 0.01 -0.03 0.01 -0.03 0.01 -0.05 0.01 -0.03 0 -0.02 0 -0.01 0.01 -0.03 0.01 -0.03 0.01 -0.05 0.01 -0.03 0.01 -0.03 0.02 -0.11 0 -0.03 0 -0.03 0 -0.01 0 -0.01c0.14,-0.8 0.22,-1.63 0.22,-2.48 0,-1.31 -0.18,-2.58 -0.51,-3.78l-0.03 -0.11 -0 -0.01 -0.07 -0.25 -0 -0.01 -0.02 -0.05 -0.01 -0.02 -0 -0.01 -0.01 -0.03c-0.04,-0.13 -0.08,-0.25 -0.12,-0.37l-0 -0.01 -0.08 -0.23 -0.01 -0.03 -0.01 -0.03 -0.01 -0.03 -0.02 -0.05 -0.01 -0.03 -0 -0.01 -0.03 -0.07 -0 -0.01 -0.01 -0.01 -0.02 -0.05 -0.01 -0.01 -0.02 -0.06 -0.01 -0.02 -0 -0.01 -0.06 -0.15c-0.05,-0.13 -0.11,-0.26 -0.17,-0.38l-0.01 -0.01 -0.06 -0.14 -0 -0.01 -0.01 -0.02 -0.04 -0.08 -0.03 -0.06 -0.01 -0.02 -0.04 -0.08 -0.03 -0.06 -0.01 -0.02 -0.04 -0.08 -0.03 -0.05 -0.01 -0.02 -0.04 -0.08 -0.03 -0.05 -0.01 -0.02 -0.04 -0.08 -0.03 -0.05 -0.01 -0.03 -0.04 -0.08 -0.03 -0.05 -0.06 -0.1 -0.03 -0.04 -0.02 -0.03 -0.04 -0.07 -0.02 -0.04 -0.02 -0.03 -0.04 -0.07 -0.02 -0.04 -0.02 -0.03 -0.05 -0.07 -0.02 -0.04 -0.02 -0.04 -0.05 -0.07 -0.02 -0.04 -0.02 -0.04 -0.05 -0.07 -0.02 -0.03 -0.03 -0.04 -0.05 -0.07 -0.02 -0.03 -0.03 -0.04 -0.05 -0.07 -0.02 -0.03 -0.03 -0.04 -0.05 -0.07 -0.02 -0.03 -0.03 -0.04 -0.05 -0.07 -0.02 -0.02 -0.03 -0.04 -0.05 -0.07 -0.02 -0.02 -0.03 -0.05 -0.05 -0.07 -0.02 -0.02 -0.04 -0.05 -0.05 -0.07 -0.01 -0.02 -0.04 -0.05 -0.05 -0.07 -0.01 -0.02 -0.04 -0.05 -0.16 -0.2 -0.01 -0.01 -0.05 -0.05 -0.06 -0.07 -0.01 -0.01 -0.05 -0.05 -0.06 -0.06 -0.01 -0.01 -0.11 -0.12 -0.01 -0.01 -0.05 -0.06zm-19.91 6.45c0.64,0.64 1.04,1.53 1.04,2.52 0,0.99 -0.4,1.88 -1.04,2.52 -0.64,0.64 -1.54,1.04 -2.52,1.04 -0.11,0 -0.22,-0.01 -0.33,-0.02l-0.01 -0.04 -0.01 -0.05 -0 -0.01 -0.01 -0.03 -0.01 -0.05 -0.01 -0.04 -0.01 -0.03 -0 -0.01 -0.01 -0.05 -0.01 -0.05 -0.01 -0.05 -0 -0.01 -0.01 -0.04 -0.02 -0.12 -0 -0.02 -0.02 -0.09 -0.01 -0.05 -0.01 -0.04 -0.01 -0.05 -0.01 -0.05 -0 -0.02 -0 -0.02 -0.01 -0.09 -0.01 -0.04 -0 -0.01 -0.01 -0.05 -0.01 -0.05 -0.01 -0.05 -0 -0.01 -0 -0.03 -0.01 -0.09 -0 -0.03 -0 -0.01 -0.01 -0.05 -0.01 -0.05 -0.01 -0.05 -0 -0.01 -0 -0.04 -0.01 -0.05 -0 -0.05 -0 -0.03 -0 -0.02 -0 -0.05 -0 -0.05 -0 -0.05 -0 -0.05 -0.01 -0.09 -0 -0.02 -0 -0.03 -0 -0.05 -0.01 -0.09 -0 -0.01 -0.01 -0.14 -0 -0.01 -0 -0.03 -0 -0.05 -0 -0.05 -0 -0.03 -0 -0.01 -0 -0.05 -0 -0.08 -0 -0.01 -0 -0.01 -0 -0.04 -0 -0.1 0 -0.03 -0 -0.02 -0 -0.05 -0 -0.05 0 -0.05 0 -0.07 0 -0.07 0 -0.03 0 -0.04 0 -0.07 0 -0.06 0 -0.01 0 -0.01 0 -0.13 0 -0.02 0 -0.11 0 -0.05 0 -0.02 0.01 -0.13 0 -0.01 0.01 -0.12 0 -0.04 0 -0.03 0.01 -0.07 0.01 -0.07 0.02 -0.16 0 -0.04 0.01 -0.07 0.01 -0.06 0 -0.01 0.01 -0.07 0.01 -0.07 0 -0.02 0.01 -0.05 0.01 -0.07 0.01 -0.05 0 -0.02 0.01 -0.07 0.01 -0.06 0 -0.01 0.01 -0.06 0.01 -0.06 0.01 -0.04 0 -0.03 0.01 -0.06 0.01 -0.06 0.01 -0.06 0.01 -0.06 0.01 -0.03 0.01 -0.04 0.01 -0.06 0.01 -0.05 0 -0.01 0.01 -0.06 0.01 -0.06 0 -0.02 0.01 -0.04 0.01 -0.06 0.01 -0.05 0 -0.02 0.01 -0.06 0.02 -0.06 0 -0.01 0.01 -0.05 0.02 -0.06 0.01 -0.04 0.01 -0.03 0.03 -0.13 0.02 -0.06 0.02 -0.06 0.01 -0.03 0.01 -0.04 0.02 -0.06 0.02 -0.05 0 -0.01 0 -0.01 0.03 -0.11 0.01 -0.02 0.01 -0.04 0.02 -0.06 0.01 -0.04 0.01 -0.02 0.04 -0.12 0 -0.01 0.02 -0.05c0.98,0 1.87,0.4 2.52,1.04zm21.57 6.08c-0.99,0 -1.88,-0.4 -2.52,-1.04 -0.64,-0.64 -1.04,-1.54 -1.04,-2.52 0,-0.98 0.4,-1.87 1.04,-2.52 0.64,-0.64 1.52,-1.04 2.5,-1.04 0.44,1.3 0.69,2.69 0.69,4.13 0,1.03 -0.12,2.02 -0.35,2.98 -0.1,0.01 -0.21,0.01 -0.32,0.01zm-18.38 6.03c0,-1.52 0.7,-2.9 1.82,-3.91 1.15,-1.02 2.74,-1.66 4.5,-1.66 1.76,0 3.36,0.63 4.5,1.66 1.13,1 1.82,2.39 1.82,3.91 0,0.83 -0.21,1.62 -0.58,2.32l-0.08 0.04 -0.08 0.04 -0.08 0.04 -0.08 0.04 -0.08 0.04 -0.08 0.04 -0.08 0.04 -0.08 0.04 -0.08 0.04 -0.08 0.04 -0.08 0.04 -0.08 0.03 -0.09 0.03 -0.08 0.03 -0.09 0.03 -0.09 0.03 -0.09 0.03 -0.09 0.03 -0.09 0.03 -0.09 0.03 -0.09 0.03 -0.09 0.03 -0.09 0.03 -0.09 0.03 -0.09 0.03 -0.09 0.03 -0.09 0.03 -0.09 0.02 -0.09 0.02 -0.09 0.02 -0.09 0.02 -0.09 0.02 -0.09 0.02 -0.09 0.02 -0.09 0.02 -0.09 0.02 -0.09 0.02 -0.09 0.02 -0.09 0.02 -0.09 0.02 -0.09 0.02 -0.09 0.02 -0.09 0.01 -0.09 0.01 -0.09 0.01 -0.09 0.01 -0.09 0.01 -0.09 0.01 -0.09 0.01 -0.09 0.01 -0.09 0.01 -0.09 0.01 -0.1 0.01 -0.09 0.01 -0.1 0.01 -0.1 0.01 -0.1 0.01 -0.1 0 -0.1 0 -0.1 0 -0.1 0 -0.1 0 -0.1 0 -0.1 0 -0.1 -0 -0.1 -0 -0.1 -0 -0.1 -0 -0.1 -0 -0.1 -0 -0.1 -0 -0.1 -0.01 -0.1 -0.01 -0.1 -0.01 -0.1 -0.01 -0.09 -0.01 -0.1 -0.01 -0.09 -0.01 -0.09 -0.01 -0.09 -0.01 -0.19 -0.02 -0.19 -0.03 -0.09 -0.01 -0.09 -0.01c-0.65,-0.11 -1.28,-0.26 -1.89,-0.46 -0.26,-0.09 -0.52,-0.18 -0.77,-0.28 -0.2,-0.08 -0.39,-0.16 -0.59,-0.25l-0.16 -0.08 -0.08 -0.04 -0.08 -0.04 -0.08 -0.04c-0.37,-0.71 -0.58,-1.49 -0.58,-2.32z"/>
  <path class="fil0" d="M11.15 6.77c-0.8,0.8 -1.29,1.9 -1.29,3.12 0,1.22 0.49,2.32 1.29,3.12 0.8,0.8 1.9,1.29 3.11,1.29 1.22,0 2.32,-0.49 3.12,-1.29 0.8,-0.8 1.29,-1.9 1.29,-3.11 0,-1.22 -0.49,-2.32 -1.29,-3.12 -0.8,-0.8 -1.9,-1.29 -3.12,-1.29 -1.22,0 -2.32,0.49 -3.12,1.29zm0.98 0.98c0.55,-0.55 1.3,-0.88 2.14,-0.88 0.83,0 1.59,0.34 2.14,0.88 0.55,0.55 0.89,1.3 0.89,2.14 0,0.84 -0.34,1.59 -0.89,2.14 -0.55,0.55 -1.3,0.89 -2.14,0.89 -0.84,0 -1.59,-0.34 -2.14,-0.88 -0.55,-0.55 -0.88,-1.3 -0.88,-2.14 0,-0.83 0.34,-1.59 0.88,-2.14z"/>
 </g>
</svg>
