<?xml version="1.0" encoding="UTF-8"?>
<!DOCTYPE svg PUBLIC "-//W3C//DTD SVG 1.1//EN" "http://www.w3.org/Graphics/SVG/1.1/DTD/svg11.dtd">
<!-- Creator: CorelDRAW (Versão OEM) -->
<svg xmlns="http://www.w3.org/2000/svg" xml:space="preserve" width="7mm" height="7mm" version="1.1" style="shape-rendering:geometricPrecision; text-rendering:geometricPrecision; image-rendering:optimizeQuality; fill-rule:evenodd; clip-rule:evenodd"
viewBox="0 0 59.17 59.17"
 xmlns:xlink="http://www.w3.org/1999/xlink"
 xmlns:xodm="http://www.corel.com/coreldraw/odm/2003">
 <defs>
  <style type="text/css">
   <![CDATA[
    .fil0 {fill:#080809}
   ]]>
  </style>
 </defs>
 <g id="Camada_x0020_1">
  <metadata id="CorelCorpID_0Corel-Layer"/>
  <path class="fil0" d="M29.58 0c16.34,0 29.58,12.66 29.58,28.28 0,15.62 -13.24,28.28 -29.58,28.28 -4.58,0 -8.92,-1 -12.79,-2.77l-6 5.38 0.17 -8.91c-1.17,-0.94 -10.96,-7.69 -10.96,-21.98 0,-15.62 13.25,-28.28 29.58,-28.28zm-20.54 33.7c-1.27,1.69 -1.92,3.68 -0.52,4.35 5.08,2.47 9.89,0.39 15.42,-6.25 0.97,-1.16 3.04,-0.88 4.39,2.01 1.65,3.55 3.79,4.66 6.41,4.46 2.17,-0.16 4.15,-1.13 5.65,-3.46 6.34,-9.82 9.38,-14.81 9.38,-14.81 0.32,-1.6 -0.52,-2.35 -2.5,-2.56 -3.38,-0.36 -5.25,0.67 -6.96,2.54 -2.81,3.06 -4.77,4.06 -4.77,4.06 -1.86,1.13 -2.88,0.79 -4.01,-0.34 -2.95,-2.96 -4.83,-4.04 -4.83,-4.04 -3.12,-2.17 -5.56,-1.55 -7.86,1.52 -6.36,8.47 -9.79,12.53 -9.79,12.53z"/>
 </g>
</svg>
