<?xml version="1.0" encoding="UTF-8"?>
<!DOCTYPE svg PUBLIC "-//W3C//DTD SVG 1.1//EN" "http://www.w3.org/Graphics/SVG/1.1/DTD/svg11.dtd">
<!-- Creator: CorelDRAW (Versão OEM) -->
<svg xmlns="http://www.w3.org/2000/svg" xml:space="preserve" width="7mm" height="7mm" version="1.1" style="shape-rendering:geometricPrecision; text-rendering:geometricPrecision; image-rendering:optimizeQuality; fill-rule:evenodd; clip-rule:evenodd"
viewBox="0 0 99.96 99.96"
 xmlns:xlink="http://www.w3.org/1999/xlink"
 xmlns:xodm="http://www.corel.com/coreldraw/odm/2003">
 <defs>
  <style type="text/css">
   <![CDATA[
    .fil0 {fill:#080809}
   ]]>
  </style>
 </defs>
 <g id="Camada_x0020_1">
  <metadata id="CorelCorpID_0Corel-Layer"/>
  <path class="fil0" d="M-0 80.57l30.82 0c-0.36,1.19 -0.55,2.42 -0.55,3.7 0,4.36 2.23,8.3 5.84,11.14 3.56,2.81 8.47,4.55 13.88,4.55 5.41,0 10.32,-1.74 13.88,-4.55 3.61,-2.84 5.84,-6.78 5.84,-11.14 0,-1.28 -0.19,-2.51 -0.55,-3.7l30.81 0 0 -8.6c0,-4.12 -3.38,-7.59 -7.86,-8.42l0 -29.93c0,-18.5 -17.43,-33.63 -38.74,-33.63l-6.77 0c-21.3,0 -38.74,15.13 -38.74,33.63l0 29.93c-4.48,0.83 -7.86,4.3 -7.86,8.42l0 8.6zm34.58 0l30.8 0c0.46,1.17 0.71,2.41 0.71,3.7 0,3.44 -1.78,6.57 -4.66,8.83 -2.92,2.3 -6.97,3.73 -11.46,3.73 -4.48,0 -8.54,-1.43 -11.46,-3.73 -2.87,-2.27 -4.66,-5.4 -4.66,-8.83 0,-1.29 0.25,-2.53 0.71,-3.7z"/>
 </g>
</svg>
